<?xml version="1.0" encoding="UTF-8"?><svg id="Layer_2" xmlns="http://www.w3.org/2000/svg" xmlns:xlink="http://www.w3.org/1999/xlink" viewBox="0 0 5000 3585.12"><defs><style>.cls-1{fill:#fad320;}.cls-2{fill:#8c2f0d;}.cls-3{fill:#fff;}.cls-4{fill:#ff5d24;}.cls-5{fill:#ff6b29;}.cls-6{fill:#fffcfb;}.cls-7{fill:#ff4e1f;}.cls-8{fill:#f3f0f0;}.cls-9{fill:#eac218;}.cls-10,.cls-11{fill:none;}.cls-12{fill:#d33f01;}.cls-13{fill:#ff754a;}.cls-11{clip-path:url(#clippath);}.cls-14{fill:#ff6525;}</style><clipPath id="clippath"><polygon class="cls-10" points="3647.1 1784.49 1405.47 832.97 1405.47 648.23 3647.1 1599.74 3647.1 1784.49"/></clipPath></defs><g id="traffic_cone_under_construction"><g id="Under_construction_sign_and_traffic_cones"><rect class="cls-7" x="3159.59" y="2770.76" width="1840.41" height="67.76"/><path class="cls-7" d="m4084.65,2427.51l897.86,385.76c23.33,10.02,23.33,45.69,0,55.71l-838.98,360.46c-38.98,16.75-82.42,16.75-121.4,0l-845.04-363.06c-23.33-10.02-23.33-45.69,0-55.71l891.8-383.16c5.06-2.17,10.7-2.17,15.76,0Z"/><path class="cls-5" d="m4084.65,2358.45l897.86,385.76c23.33,10.02,23.33,45.69,0,55.71l-838.98,360.46c-38.98,16.75-82.42,16.75-121.4,0l-845.04-363.06c-23.33-10.02-23.33-45.69,0-55.71l891.8-383.16c5.06-2.17,10.7-2.17,15.76,0Z"/><path class="cls-7" d="m4079.8,2502.32c340.28,0,616.13,74.38,616.13,166.14v115.32c0,91.75-275.85,166.14-616.13,166.14-340.28,0-616.13-74.38-616.13-166.14v-115.32c0-91.75,275.85-166.14,616.13-166.14Z"/><ellipse class="cls-5" cx="4079.8" cy="2668.45" rx="616.13" ry="166.14"/><path class="cls-14" d="m3565.89,2647.54l133.6-595.28c94.04,20.82,229.6,33.88,380.31,33.88s286.27-13.06,380.31-33.88l133.6,595.28s27.02,136.23-513.91,136.23c-540.93,0-513.91-136.23-513.91-136.23Z"/><path class="cls-14" d="m3932.79,1012.79c2.43-10.84,14.79-18.76,29.25-18.76h117.76s117.76,0,117.76,0c14.46,0,26.82,7.92,29.25,18.76l36.47,162.48h-183.47s-183.47,0-183.47,0l36.47-162.48Z"/><path class="cls-14" d="m3851.72,1374.02h228.08s228.08,0,228.08,0l107.69,479.79c-90.08,15.67-207.43,25.14-335.77,25.14-128.33,0-245.69-9.47-335.77-25.14l107.69-479.79Z"/><polygon class="cls-6" points="3896.32 1175.27 4079.8 1175.27 4263.27 1175.27 4307.88 1374.02 4079.8 1374.02 3851.72 1374.02 3896.32 1175.27"/><path class="cls-6" d="m3744.03,1853.82c90.08,15.67,207.43,25.14,335.77,25.14,128.33,0,245.69-9.47,335.77-25.14l44.54,198.44c-94.04,20.82-229.6,33.88-380.31,33.88s-286.27-13.06-380.31-33.88l44.54-198.44Z"/><path class="cls-4" d="m3565.89,2647.54l133.6-595.28c94.04,20.82,229.6,33.88,380.31,33.88,71.97,0,140.47-2.99,202.66-8.37l87.23,687.76c-71.51,11.06-165.73,18.24-289.9,18.24-540.93,0-513.91-136.23-513.91-136.23Z"/><path class="cls-4" d="m4079.8,1175.27h-183.47s36.47-162.48,36.47-162.48c2.43-10.84,14.79-18.76,29.25-18.76h117.76s65.21,0,65.21,0l22.99,181.24h-88.2Z"/><path class="cls-4" d="m4193.2,1374.02l63.25,498.65c-55.09,4.06-114.58,6.28-176.65,6.28-128.33,0-245.69-9.47-335.77-25.14l107.69-479.79h228.08s113.4,0,113.4,0Z"/><path class="cls-7" d="m4460.1,2052.26l133.6,595.28s16.02,80.87-224.01,117.99l-87.23-687.76c68.03-5.89,128.51-14.64,177.64-25.51Z"/><path class="cls-7" d="m4226.8,1012.79l36.47,162.48h-95.28s-22.99-181.24-22.99-181.24h52.55c14.46,0,26.82,7.92,29.25,18.76Z"/><path class="cls-7" d="m4193.2,1374.02h114.68s107.69,479.79,107.69,479.79c-46.51,8.09-100.31,14.52-159.12,18.86l-63.25-498.65Z"/><polygon class="cls-8" points="4167.99 1175.27 4263.27 1175.27 4307.88 1374.02 4193.2 1374.02 4167.99 1175.27"/><path class="cls-8" d="m4415.56,1853.82l44.54,198.44c-49.13,10.87-109.61,19.63-177.64,25.51l-26.01-205.1c58.81-4.34,112.6-10.77,159.12-18.86Z"/><path class="cls-4" d="m3566.59,2658.59l-.71-11.05s-.82,4.17.71,11.05Z"/><path class="cls-13" d="m4004.7,1052.04c-7.95,0-14.78,5.67-16.23,13.49l-311.37,1674.36h0c48.81,15.98,118.9,29.92,219.47,37.59l124.6-1707.73c.7-9.57-6.87-17.71-16.47-17.71Z"/><polygon class="cls-6" points="4167.99 1175.27 4193.2 1374.02 4079.8 1374.02 3851.72 1374.02 3896.32 1175.27 4079.8 1175.27 4167.99 1175.27"/><path class="cls-6" d="m4256.45,1872.67l26.01,205.1c-62.19,5.38-130.69,8.37-202.66,8.37-150.71,0-286.27-13.06-380.31-33.88l44.54-198.44c90.08,15.67,207.43,25.14,335.77,25.14,62.07,0,121.56-2.22,176.65-6.28Z"/><path class="cls-4" d="m4277.55,3014c-62.23,10.22-133.35,15.29-171.03,17.44-17.81,1.01-35.63,1.01-53.44,0-37.68-2.15-108.8-7.21-171.03-17.44-8.97-1.47-12.7,11.05-4.4,14.76l172.67,77.01c18.76,8.37,40.19,8.37,58.95,0l172.67-77.01c8.3-3.7,4.58-16.23-4.4-14.76Z"/><path class="cls-4" d="m3284.43,2756.58l85.52-26.9c10.87-3.42,22.48,3.7,19.5,12.01-4.51,12.59-7.46,29.32-1.59,46.39,2.82,8.2-8.34,15.26-19.16,12.1l-83.93-24.55c-11.73-3.43-11.94-15.4-.34-19.05Z"/><path class="cls-4" d="m4875.16,2756.58l-85.52-26.9c-10.87-3.42-22.48,3.7-19.5,12.01,4.51,12.59,7.46,29.32,1.59,46.39-2.82,8.2,8.34,15.26,19.16,12.1l83.93-24.55c11.73-3.43,11.94-15.4.34-19.05Z"/><rect class="cls-7" x="1474.47" y="1776.73" width="1840.41" height="67.76"/><path class="cls-7" d="m2399.52,1433.48l897.86,385.76c23.33,10.02,23.33,45.69,0,55.71l-838.98,360.46c-38.98,16.75-82.42,16.75-121.4,0l-845.04-363.06c-23.33-10.02-23.33-45.69,0-55.71l891.8-383.16c5.06-2.17,10.7-2.17,15.76,0Z"/><path class="cls-5" d="m2399.52,1364.42l897.86,385.76c23.33,10.02,23.33,45.69,0,55.71l-838.98,360.46c-38.98,16.75-82.42,16.75-121.4,0l-845.04-363.06c-23.33-10.02-23.33-45.69,0-55.71l891.8-383.16c5.06-2.17,10.7-2.17,15.76,0Z"/><path class="cls-7" d="m2394.68,1508.29c340.28,0,616.13,74.38,616.13,166.14v115.32c0,91.75-275.85,166.14-616.13,166.14-340.28,0-616.13-74.38-616.13-166.14v-115.32c0-91.75,275.85-166.14,616.13-166.14Z"/><ellipse class="cls-5" cx="2394.68" cy="1674.42" rx="616.13" ry="166.14"/><path class="cls-14" d="m1880.77,1653.51l133.6-595.28c94.04,20.82,229.6,33.88,380.31,33.88s286.27-13.06,380.31-33.88l133.6,595.28s27.02,136.23-513.91,136.23c-540.93,0-513.91-136.23-513.91-136.23Z"/><path class="cls-14" d="m2247.67,18.76C2250.1,7.92,2262.46,0,2276.92,0h117.76s117.76,0,117.76,0c14.46,0,26.82,7.92,29.25,18.76l36.47,162.48h-183.47s-183.47,0-183.47,0l36.47-162.48Z"/><path class="cls-14" d="m2166.59,379.99h228.08s228.08,0,228.08,0l107.69,479.79c-90.08,15.67-207.43,25.14-335.77,25.14-128.33,0-245.69-9.47-335.77-25.14l107.69-479.79Z"/><polygon class="cls-6" points="2211.2 181.24 2394.68 181.24 2578.15 181.24 2622.76 379.99 2394.68 379.99 2166.59 379.99 2211.2 181.24"/><path class="cls-6" d="m2058.91,859.79c90.08,15.67,207.43,25.14,335.77,25.14,128.33,0,245.69-9.47,335.77-25.14l44.54,198.44c-94.04,20.82-229.6,33.88-380.31,33.88s-286.27-13.06-380.31-33.88l44.54-198.44Z"/><path class="cls-4" d="m1880.77,1653.51l133.6-595.28c94.04,20.82,229.6,33.88,380.31,33.88,71.97,0,140.47-2.99,202.66-8.37l87.23,687.76c-71.51,11.06-165.73,18.24-289.9,18.24-540.93,0-513.91-136.23-513.91-136.23Z"/><path class="cls-4" d="m2394.68,181.24h-183.47s36.47-162.48,36.47-162.48C2250.1,7.92,2262.46,0,2276.92,0h117.76s65.21,0,65.21,0l22.99,181.24h-88.2Z"/><path class="cls-4" d="m2508.08,379.99l63.25,498.65c-55.09,4.06-114.58,6.28-176.65,6.28-128.33,0-245.69-9.47-335.77-25.14l107.69-479.79h228.08s113.4,0,113.4,0Z"/><path class="cls-7" d="m2774.98,1058.23l133.6,595.28s16.02,80.87-224.01,117.99l-87.23-687.76c68.03-5.89,128.51-14.64,177.64-25.51Z"/><path class="cls-7" d="m2541.68,18.76l36.47,162.48h-95.28S2459.88,0,2459.88,0h52.55c14.46,0,26.82,7.92,29.25,18.76Z"/><path class="cls-7" d="m2508.08,379.99h114.68s107.69,479.79,107.69,479.79c-46.51,8.09-100.31,14.52-159.12,18.86l-63.25-498.65Z"/><polygon class="cls-8" points="2482.87 181.24 2578.15 181.24 2622.76 379.99 2508.08 379.99 2482.87 181.24"/><path class="cls-8" d="m2730.44,859.79l44.54,198.44c-49.13,10.87-109.61,19.63-177.64,25.51l-26.01-205.1c58.81-4.34,112.6-10.77,159.12-18.86Z"/><path class="cls-4" d="m1881.47,1664.56l-.71-11.05s-.82,4.17.71,11.05Z"/><path class="cls-13" d="m2319.58,58.01c-7.95,0-14.78,5.67-16.23,13.49l-311.37,1674.36h0c48.81,15.98,118.9,29.92,219.47,37.59l124.6-1707.73c.7-9.57-6.87-17.71-16.47-17.71Z"/><polygon class="cls-6" points="2482.87 181.24 2508.08 379.99 2394.68 379.99 2166.59 379.99 2211.2 181.24 2394.68 181.24 2482.87 181.24"/><path class="cls-6" d="m2571.33,878.64l26.01,205.1c-62.19,5.38-130.69,8.37-202.66,8.37-150.71,0-286.27-13.06-380.31-33.88l44.54-198.44c90.08,15.67,207.43,25.14,335.77,25.14,62.07,0,121.56-2.22,176.65-6.28Z"/><path class="cls-4" d="m2592.42,2019.97c-62.23,10.22-133.35,15.29-171.03,17.44-17.81,1.01-35.63,1.01-53.44,0-37.68-2.15-108.8-7.21-171.03-17.44-8.97-1.47-12.7,11.05-4.4,14.76l172.67,77.01c18.76,8.37,40.19,8.37,58.95,0l172.67-77.01c8.3-3.7,4.58-16.23-4.4-14.76Z"/><path class="cls-4" d="m1599.31,1762.55l85.52-26.9c10.87-3.42,22.48,3.7,19.5,12.01-4.51,12.59-7.46,29.32-1.59,46.39,2.82,8.2-8.34,15.26-19.16,12.1l-83.93-24.55c-11.73-3.43-11.94-15.4-.34-19.05Z"/><path class="cls-4" d="m3190.04,1762.55l-85.52-26.9c-10.87-3.42-22.48,3.7-19.5,12.01,4.51,12.59,7.46,29.32,1.59,46.39-2.82,8.2,8.34,15.26,19.16,12.1l83.93-24.55c11.73-3.43,11.94-15.4.34-19.05Z"/><path class="cls-9" d="m3698.63,1401.28L1432.49,439.35c-53.43-22.68-100.89-17.34-130.95,9.36h-.03s-.19.18-.19.18c-2.26,2.02-4.4,4.17-6.45,6.43l-34.83,34.69v.05c-19.7,18.76-31.36,47.17-31.36,83.26v1577.7c0,90.87,73.66,195.8,164.53,234.37l2266.14,961.92c51.41,21.82,97.3,17.71,127.47-6.42h0s.12-.11.12-.11c4.66-3.74,8.94-7.95,12.81-12.62l30.72-30.26h0c20.52-18.74,32.67-47.65,32.67-84.56v-1577.7c0-90.87-73.66-195.8-164.53-234.37Z"/><path class="cls-1" d="m3659.36,3347.32l-2266.14-961.92c-90.87-38.57-164.53-143.5-164.53-234.37V573.32c0-90.87,73.66-133.26,164.53-94.69l2266.14,961.92c90.87,38.57,164.53,143.5,164.53,234.37v1577.7c0,90.87-73.66,133.26-164.53,94.69Z"/><polygon points="3647.1 2869.37 1403.69 1917.11 1403.69 2261.26 3647.1 3213.52 3647.1 2869.37"/><path d="m1900.6,1207.59v288.16c0,50.14-16.67,81.93-49.99,95.37-33.33,13.44-76.98,8.71-130.94-14.2-54.57-23.16-98.58-55.63-132-97.41-33.43-41.78-50.14-87.74-50.14-137.88v-288.16l102.4,43.47v288.16c0,26.99,6.95,49.92,20.84,68.81,13.89,18.89,33.53,33.72,58.9,44.49,25.17,10.68,44.55,12.47,58.15,5.35,13.59-7.11,20.39-24.27,20.39-51.45v-288.16l102.4,43.47Z"/><path d="m2334.66,1831.63l-101.79-43.21-161-348.65-1.81-.16v279.71l-102.4-43.47v-439.8l102.4,43.47,161,348.65,1.81.16v-279.71l101.79,43.21v439.8Z"/><path d="m2403.84,1861v-439.8l158.88,67.44c51.75,21.97,95.04,57.21,129.89,105.73,34.84,48.52,52.26,99.16,52.26,151.92v79.14c0,52.96-17.42,88.86-52.26,107.7-34.84,18.84-78.13,17.28-129.89-4.69l-158.88-67.44Zm102.4-317.8v282.73l49.54,21.03c27.19,11.54,48.43,11.24,63.73-.89,15.3-12.13,22.96-33.5,22.96-64.11v-79.75c0-30.41-7.66-58.12-22.96-83.15-15.31-25.02-36.55-43.3-63.73-54.84l-49.54-21.03Z"/><path d="m3082.87,1961.04l-172.48-73.21v109.65l203.29,86.29v78.54l-305.68-129.76v-439.8l306.29,130.01v78.53l-203.89-86.55v94.55l172.48,73.21v78.54Z"/><path d="m3262.29,2056.84v168.55l-102.4-43.47v-439.8l169.15,71.8c50.94,21.62,91.32,50.54,121.12,86.75,29.8,36.21,44.71,74.76,44.71,115.64,0,22.76-5.99,39.74-17.97,50.97-11.98,11.22-29.65,17.02-53.01,17.37,26.98,19.11,46.37,40.07,58.15,62.89,11.78,22.82,17.67,47.52,17.67,74.11v27.79c0,11.48,1.71,25.3,5.13,41.45,3.42,16.15,9.36,29.15,17.82,38.98v6.04l-105.12-44.62c-8.06-9.66-13.34-22.98-15.86-39.96-2.52-16.97-3.78-32.21-3.78-45.7v-26.58c0-20.94-5.54-39.3-16.61-55.08-11.08-15.77-27.29-28.2-48.63-37.26l-70.38-29.88Zm0-78.53l67.36,28.59c20.54,8.72,36.25,10.7,47.12,5.96,10.87-4.75,16.31-15.88,16.31-33.4s-5.59-34.74-16.76-50.46c-11.18-15.72-26.94-27.9-47.27-36.53l-66.76-28.34v114.18Z"/><path d="m1672.11,1810.73l.27.92c-.89,22.45-7.65,37.01-20.26,43.69-12.62,6.68-30.92,4.93-54.9-5.25-24.07-10.22-43.64-25.92-58.71-47.12-15.07-21.2-22.6-43.61-22.6-67.23v-40.66c0-23.54,7.24-39.65,21.73-48.35,14.49-8.69,33.32-8.12,56.5,1.72,24.61,10.44,43.42,24.63,56.44,42.55,13.02,17.92,20.37,38.65,22.07,62.19l-.27.69-44-18.68c-.62-12.93-3.46-23.53-8.49-31.82-5.04-8.29-13.62-15.01-25.74-20.15-10.25-4.35-18.32-3.65-24.21,2.1-5.88,5.75-8.83,15.31-8.83,28.68v40.92c0,13.47,3.21,25.7,9.63,36.72,6.42,11.02,15.25,18.91,26.48,23.68,10.88,4.62,18.59,4.99,23.14,1.13,4.55-3.87,7.13-12,7.76-24.39l44,18.68Z"/><path d="m1857.47,1877.91c0,23.99-7.6,40.53-22.8,49.63-15.2,9.1-35.06,8.45-59.58-1.95-24.7-10.48-44.71-26.76-60.05-48.83-15.34-22.07-23-45.09-23-69.08v-35.04c0-23.89,7.64-40.4,22.94-49.51,15.29-9.11,35.24-8.44,59.85,2,24.43,10.37,44.31,26.61,59.65,48.72,15.33,22.11,23,45.12,23,69.01v35.04Zm-45.07-54.44c0-13.91-3.28-26.71-9.83-38.41-6.55-11.7-15.8-20.08-27.75-25.15-12.22-5.19-21.55-4.71-28.02,1.41-6.47,6.13-9.7,16.19-9.7,30.19v35.3c0,14.09,3.28,26.98,9.83,38.68,6.55,11.7,15.94,20.14,28.15,25.32,11.86,5.03,21.04,4.48,27.55-1.68,6.51-6.15,9.76-16.27,9.76-30.36v-35.31Z"/><path d="m2046.17,2037.85l-45.07-19.13-71.28-154.37-.8-.07v123.84l-45.34-19.24v-194.72l45.34,19.24,71.28,154.36.8.07v-123.84l45.07,19.13v194.72Z"/><path d="m2180.18,2043.11c0-6.86-2.27-13.13-6.82-18.81-4.55-5.67-12.7-13.1-24.47-22.29-24.61-18.2-42.84-34.26-54.7-48.16-11.86-13.9-17.79-29.24-17.79-46s7.07-26.51,21.2-30.59c14.13-4.08,32.07-1.5,53.83,7.74,21.58,9.16,39.25,22.21,53.03,39.16,13.78,16.95,20.44,34.06,19.99,51.35l-.27.69-43.87-18.62c0-7.76-2.63-15.18-7.89-22.27s-12.53-12.61-21.8-16.54c-9.09-3.86-16.23-4.88-21.4-3.06-5.17,1.82-7.76,5.67-7.76,11.55s2.61,11.38,7.82,17.03c5.22,5.65,15,14.1,29.36,25.37,22.11,15.98,38.76,31.16,49.95,45.54,11.19,14.38,16.78,30,16.78,46.84s-6.67,27.69-19.99,31.7c-13.33,4.02-31.01,1.35-53.03-8-22.11-9.39-41.24-23.06-57.37-41-16.14-17.95-23.98-37.26-23.54-57.93l.27-.69,44,18.68c0,11.23,3.03,20.54,9.09,27.93,6.06,7.39,15.25,13.69,27.55,18.92,9.36,3.97,16.34,5.06,20.93,3.27,4.59-1.8,6.89-5.73,6.89-11.79Z"/><path d="m2385.59,2021.97l-51.36-21.8v159.95l-45.34-19.24v-159.95l-50.95-21.63v-34.77l147.65,62.67v34.77Z"/><path d="m2449.25,2134.32v74.62l-45.34-19.24v-194.72l74.89,31.79c22.55,9.58,40.43,22.38,53.63,38.41,13.19,16.03,19.79,33.1,19.79,51.2,0,10.08-2.65,17.6-7.96,22.57-5.31,4.97-13.13,7.53-23.47,7.69,11.95,8.46,20.53,17.74,25.74,27.85,5.22,10.1,7.82,21.04,7.82,32.81v12.3c0,5.08.76,11.2,2.27,18.35,1.52,7.15,4.15,12.91,7.89,17.26v2.67l-46.54-19.75c-3.57-4.28-5.91-10.17-7.02-17.69-1.12-7.52-1.67-14.26-1.67-20.24v-11.77c0-9.27-2.45-17.4-7.36-24.39-4.9-6.98-12.08-12.48-21.53-16.5l-31.16-13.22Zm0-34.77l29.82,12.66c9.09,3.86,16.05,4.74,20.86,2.64,4.81-2.1,7.22-7.03,7.22-14.79s-2.47-15.38-7.42-22.34c-4.95-6.96-11.93-12.35-20.93-16.17l-29.56-12.55v50.55Z"/><path d="m2744.54,2139.57v127.58c0,22.2-7.38,36.28-22.14,42.23-14.76,5.95-34.08,3.86-57.97-6.29-24.16-10.26-43.64-24.63-58.44-43.13-14.8-18.5-22.2-38.84-22.2-61.05v-127.59l45.34,19.24v127.59c0,11.95,3.07,22.1,9.23,30.46,6.15,8.36,14.84,14.93,26.08,19.7,11.14,4.73,19.73,5.52,25.74,2.37s9.03-10.75,9.03-22.78v-127.58l45.34,19.24Z"/><path d="m2925.89,2342.93l.27.92c-.89,22.45-7.65,37.01-20.26,43.69-12.62,6.68-30.92,4.93-54.9-5.25-24.07-10.22-43.64-25.93-58.71-47.12-15.07-21.2-22.6-43.61-22.6-67.23v-40.65c0-23.54,7.24-39.66,21.73-48.35,14.49-8.7,33.32-8.12,56.5,1.72,24.61,10.44,43.42,24.63,56.44,42.54,13.02,17.92,20.37,38.65,22.07,62.19l-.27.69-44-18.67c-.62-12.93-3.46-23.53-8.49-31.82-5.04-8.29-13.62-15.01-25.74-20.16-10.25-4.35-18.32-3.65-24.21,2.1-5.88,5.75-8.83,15.31-8.83,28.68v40.92c0,13.47,3.21,25.7,9.63,36.72,6.42,11.02,15.25,18.91,26.48,23.68,10.88,4.62,18.59,5,23.14,1.13,4.55-3.86,7.13-12,7.76-24.39l44,18.68Z"/><path d="m3082.23,2317.68l-51.35-21.8v159.95l-45.34-19.24v-159.95l-50.95-21.63v-34.77l147.64,62.67v34.77Z"/><path d="m3148.69,2505.84l-45.07-19.13v-194.72l45.07,19.13v194.72Z"/><path d="m3343.28,2508.6c0,23.99-7.6,40.53-22.8,49.63-15.2,9.11-35.06,8.45-59.58-1.95-24.7-10.48-44.71-26.76-60.05-48.83-15.34-22.07-23-45.09-23-69.08v-35.04c0-23.89,7.64-40.4,22.94-49.51,15.29-9.11,35.24-8.45,59.85,2,24.43,10.37,44.31,26.61,59.65,48.72,15.33,22.11,23,45.11,23,69.01v35.04Zm-45.07-54.44c0-13.91-3.28-26.71-9.83-38.41-6.55-11.7-15.8-20.08-27.75-25.15-12.22-5.19-21.55-4.71-28.02,1.41-6.47,6.13-9.7,16.19-9.7,30.19v35.3c0,14.09,3.28,26.98,9.83,38.68,6.55,11.7,15.94,20.14,28.15,25.32,11.86,5.03,21.04,4.48,27.55-1.68,6.51-6.15,9.76-16.27,9.76-30.36v-35.31Z"/><path d="m3531.98,2668.54l-45.07-19.13-71.28-154.36-.8-.07v123.84l-45.34-19.24v-194.72l45.34,19.24,71.28,154.37.8.07v-123.84l45.07,19.13v194.72Z"/><path class="cls-3" d="m1933.51,2343.54l.21.71c-.69,17.37-5.92,28.63-15.68,33.8-9.76,5.17-23.92,3.82-42.47-4.06-18.62-7.9-33.77-20.06-45.42-36.45-11.66-16.4-17.49-33.74-17.49-52.02v-31.46c0-18.21,5.6-30.68,16.81-37.41,11.21-6.73,25.78-6.28,43.72,1.33,19.04,8.08,33.59,19.06,43.66,32.92,10.07,13.86,15.76,29.9,17.07,48.12l-.21.53-34.04-14.45c-.48-10-2.67-18.21-6.57-24.62-3.9-6.41-10.54-11.61-19.92-15.59-7.93-3.37-14.18-2.82-18.73,1.62-4.55,4.45-6.83,11.85-6.83,22.19v31.66c0,10.41,2.48,19.88,7.45,28.41,4.97,8.52,11.8,14.63,20.49,18.32,8.41,3.57,14.38,3.87,17.9.87,3.52-2.99,5.52-9.28,6-18.87l34.04,14.45Z"/><path class="cls-3" d="m2076.92,2395.52c0,18.56-5.88,31.35-17.64,38.4-11.76,7.04-27.13,6.54-46.1-1.51-19.11-8.11-34.59-20.7-46.46-37.78-11.87-17.07-17.8-34.89-17.8-53.44v-27.11c0-18.49,5.91-31.25,17.74-38.3,11.83-7.05,27.26-6.54,46.3,1.55,18.9,8.02,34.28,20.59,46.15,37.69,11.86,17.11,17.8,34.91,17.8,53.39v27.11Zm-34.87-42.12c0-10.76-2.53-20.67-7.6-29.72-5.07-9.05-12.23-15.54-21.47-19.46-9.45-4.01-16.68-3.65-21.68,1.09-5,4.74-7.5,12.53-7.5,23.35v27.32c0,10.9,2.54,20.87,7.61,29.92,5.07,9.05,12.33,15.58,21.78,19.59,9.17,3.89,16.28,3.46,21.32-1.3,5.03-4.76,7.55-12.59,7.55-23.49v-27.32Z"/><path class="cls-3" d="m2143.14,2334.74l33.73,119.75.62.27,34.15-90.94,46.15,19.59v150.65l-35.08-14.89v-37.35l3.31-67.4-.62-.37-36.32,90.85-23.59-10.01-35.9-120.57-.62-.16,3.31,69.28v37.35l-35.08-14.89v-150.65l45.94,19.5Z"/><path class="cls-3" d="m2318.62,2559.88l-34.87-14.8v-150.65l34.87,14.8v150.65Z"/><path class="cls-3" d="m2470.31,2624.27l-34.87-14.8-55.15-119.43-.62-.06v95.81l-35.08-14.89v-150.65l35.08,14.89,55.15,119.43.62.06v-95.81l34.87,14.8v150.65Z"/><path class="cls-3" d="m2612.99,2664.04c-5.11,3.9-12.52,6.1-22.25,6.6-9.73.49-21.94-2.38-36.63-8.62-18.62-7.9-33.75-20.05-45.37-36.43-11.62-16.39-17.43-33.72-17.43-52v-31.45c0-18.14,5.67-30.56,17.02-37.27,11.35-6.7,25.95-6.26,43.82,1.32,19.38,8.23,33.9,18.88,43.56,31.94,9.66,13.07,15.14,27.64,16.45,43.71l-.21.53-32.8-13.92c-1.17-8.43-3.74-15.49-7.71-21.17-3.97-5.68-10.02-10.26-18.16-13.71-8.14-3.46-14.69-3.01-19.66,1.33-4.97,4.34-7.45,11.62-7.45,21.83v31.66c0,10.49,2.45,19.96,7.35,28.41,4.9,8.46,11.76,14.56,20.59,18.31,6.42,2.72,11.45,4.34,15.11,4.86,3.66.52,6.55.37,8.69-.45v-23.8l-23.69-10.06v-23.18l58.77,24.94v56.6Z"/><path class="cls-3" d="m2767.06,2710.29c0-5.31-1.76-10.16-5.28-14.55-3.52-4.39-9.83-10.14-18.94-17.25-19.04-14.08-33.15-26.5-42.32-37.26-9.18-10.76-13.76-22.62-13.76-35.59s5.47-20.51,16.4-23.67c10.93-3.15,24.81-1.16,41.65,5.99,16.69,7.09,30.37,17.19,41.02,30.3s15.81,26.36,15.47,39.73l-.21.53-33.94-14.41c0-6-2.04-11.74-6.11-17.23-4.07-5.49-9.69-9.75-16.87-12.8-7.03-2.99-12.55-3.78-16.55-2.37-4,1.41-6,4.39-6,8.94s2.02,8.81,6.05,13.18,11.6,10.91,22.71,19.62c17.11,12.37,29.99,24.11,38.65,35.24,8.66,11.12,12.99,23.2,12.99,36.24s-5.16,21.42-15.47,24.53c-10.31,3.11-23.99,1.05-41.02-6.19-17.11-7.26-31.9-17.84-44.39-31.73-12.48-13.88-18.56-28.83-18.21-44.82l.21-.53,34.04,14.45c0,8.69,2.34,15.89,7.04,21.61,4.69,5.72,11.8,10.59,21.31,14.63,7.24,3.07,12.64,3.92,16.19,2.53,3.55-1.39,5.33-4.43,5.33-9.12Z"/><path class="cls-3" d="m2945.44,2764.18c0,18.56-5.88,31.36-17.64,38.4-11.76,7.05-27.13,6.54-46.1-1.51-19.11-8.11-34.59-20.7-46.46-37.77-11.87-17.07-17.8-34.88-17.8-53.44v-27.11c0-18.49,5.91-31.25,17.75-38.3,11.83-7.05,27.26-6.54,46.3,1.55,18.9,8.02,34.28,20.59,46.15,37.7,11.86,17.11,17.8,34.91,17.8,53.39v27.11Zm-34.87-42.12c0-10.76-2.53-20.67-7.6-29.72-5.07-9.05-12.23-15.54-21.47-19.46-9.45-4.01-16.68-3.65-21.68,1.09-5,4.74-7.5,12.53-7.5,23.36v27.32c0,10.9,2.54,20.88,7.61,29.92,5.07,9.05,12.33,15.58,21.78,19.59,9.17,3.89,16.28,3.46,21.32-1.3,5.03-4.76,7.55-12.59,7.55-23.49v-27.32Z"/><path class="cls-3" d="m3090.29,2825.66c0,18.56-5.88,31.36-17.64,38.4-11.76,7.05-27.13,6.54-46.09-1.51-19.11-8.11-34.59-20.7-46.46-37.77-11.87-17.07-17.8-34.89-17.8-53.44v-27.11c0-18.49,5.91-31.25,17.74-38.3,11.83-7.05,27.26-6.53,46.3,1.55,18.9,8.02,34.28,20.59,46.15,37.7,11.86,17.11,17.8,34.91,17.8,53.39v27.11Zm-34.87-42.12c0-10.76-2.53-20.67-7.6-29.72-5.07-9.05-12.23-15.54-21.47-19.46-9.45-4.01-16.68-3.65-21.68,1.09-5,4.74-7.5,12.53-7.5,23.36v27.32c0,10.9,2.53,20.88,7.6,29.92,5.07,9.05,12.33,15.58,21.78,19.59,9.17,3.89,16.28,3.46,21.31-1.3,5.03-4.76,7.55-12.59,7.55-23.49v-27.32Z"/><path class="cls-3" d="m3236.29,2949.41l-34.87-14.8-55.15-119.43-.62-.06v95.81l-35.08-14.89v-150.65l35.08,14.89,55.15,119.43.62.06v-95.81l34.87,14.8v150.65Z"/><g class="cls-11"><polygon points="1255.32 769.24 1320.4 796.86 1505.15 690.54 1440.06 662.91 1255.32 769.24"/><polygon points="1410.43 835.08 1475.52 862.71 1660.26 756.38 1595.18 728.75 1410.43 835.08"/><polygon points="1565.54 900.92 1630.63 928.55 1815.38 822.22 1750.29 794.59 1565.54 900.92"/><polygon points="1720.66 966.76 1785.74 994.39 1970.49 888.06 1905.4 860.43 1720.66 966.76"/><polygon points="1875.77 1032.6 1940.85 1060.23 2125.6 953.9 2060.52 926.28 1875.77 1032.6"/><polygon points="2030.88 1098.44 2095.97 1126.07 2280.71 1019.75 2215.63 992.12 2030.88 1098.44"/><polygon points="2185.99 1164.29 2251.08 1191.91 2435.83 1085.59 2370.74 1057.96 2185.99 1164.29"/><polygon points="2341.11 1230.13 2406.19 1257.75 2590.94 1151.43 2525.85 1123.8 2341.11 1230.13"/><polygon points="2496.22 1295.97 2561.31 1323.6 2746.05 1217.27 2680.97 1189.64 2496.22 1295.97"/><polygon points="2651.33 1361.81 2716.42 1389.44 2901.17 1283.11 2836.08 1255.48 2651.33 1361.81"/><polygon points="2806.45 1427.65 2871.53 1455.28 3056.28 1348.95 2991.19 1321.33 2806.45 1427.65"/><polygon points="2961.56 1493.49 3026.64 1521.12 3211.39 1414.79 3146.31 1387.17 2961.56 1493.49"/><polygon points="3116.67 1559.33 3181.76 1586.96 3366.5 1480.64 3301.42 1453.01 3116.67 1559.33"/><polygon points="3271.78 1625.18 3336.87 1652.8 3521.62 1546.48 3456.53 1518.85 3271.78 1625.18"/><polygon points="3426.9 1691.02 3491.98 1718.65 3676.73 1612.32 3611.64 1584.69 3426.9 1691.02"/><polygon points="3582.01 1756.86 3647.1 1784.49 3831.84 1678.16 3766.76 1650.53 3582.01 1756.86"/></g><polygon class="cls-7" points="27.28 3085.23 83.21 3139.63 1451.01 1825.94 1400.47 1775.32 27.28 3085.23"/><path class="cls-7" d="m147.82,1837.56l1184.3-86.17c54.54-3.97,100.22,40.75,97.43,95.36l-53.77,1049.21c-2.29,44.61-36.63,80.95-81.04,85.76l-1194,129.29c-55.9,6.05-103.84-39.56-100.58-95.69l63.47-1092.33c2.65-45.57,38.67-82.12,84.19-85.43Z"/><path class="cls-5" d="m192.62,1882.36l1184.3-86.17c54.54-3.97,100.22,40.75,97.43,95.36l-53.77,1049.21c-2.29,44.61-36.63,80.95-81.04,85.76l-1194,129.29c-55.9,6.05-103.84-39.56-100.58-95.69l63.47-1092.33c2.65-45.57,38.67-82.12,84.19-85.43Z"/><path class="cls-4" d="m203.79,2004.93l-6.04,138.49c-.83,18.97,23.42,27.52,34.68,12.23,33.16-45.01,88.8-107.67,169.49-158.1,16.96-10.6,8.34-36.86-11.61-35.43l-155.71,11.14c-16.82,1.2-30.07,14.83-30.81,31.67Z"/><path class="cls-4" d="m156.52,2868.16l-7.78,166.67c-.4,8.5,6.79,15.4,15.27,14.65l173.82-15.28c13.91-1.22,17.69-19.74,5.42-26.38-45.61-24.68-114.7-71.5-160.72-146.35-7.25-11.78-25.36-7.13-26,6.69Z"/><path class="cls-4" d="m1198.49,1906.69l155.22-10.51c11.83-.8,21.63,9.05,20.77,20.87l-10.61,146.73c-1.36,18.79-25.93,24.95-35.95,9-25.1-39.95-68.06-91.19-137.65-129.62-16.98-9.38-11.13-35.16,8.22-36.47Z"/><polygon class="cls-7" points="1261.21 2289.6 1224.95 2226.74 372.82 2757.93 464.38 2854.75 1261.21 2289.6"/><ellipse class="cls-7" cx="789.62" cy="2478.08" rx="502.68" ry="400.03" transform="translate(-1133.25 726.81) rotate(-30)"/><ellipse class="cls-5" cx="840.49" cy="2543.96" rx="491.69" ry="391.29" transform="translate(-1159.38 761.07) rotate(-30)"/><path class="cls-4" d="m1145.76,2898.79c193.84-107.69,303.01,16,303.01,16l-81.38-212.26h0c-59.14-44.71-185.48-130.67-407.02-17.57-12.79,6.53-24.66,13.51-35.68,20.85-12.07,136.33-4.09,295.64,41.02,475.57l31.18,24.54s-44.98-199.44,148.86-307.13Z"/><path class="cls-4" d="m1295.27,2514.42l-54.37-141.79s-38.17-109.85-159.17-160.69c-26.79,43.4-61.91,109.12-92.6,195.41,200.55-26.67,306.14,107.08,306.14,107.08Z"/><path class="cls-4" d="m1318.07,3144.06c-123.08,54.5-130.19,212.17-130.19,212.17l255.05,200.74,198.19-140.52-105.45-275.04s-94.52-51.86-217.6,2.65Z"/><path class="cls-7" d="m924.69,2705.8c-180,119.82-133.72,338.02-133.72,338.03l174.75,137.54c-45.12-179.92-53.09-339.23-41.02-475.57Z"/><path class="cls-7" d="m779.61,2215.7c-366.16,116.92-382.14,445.94-306.8,538.47,29.68,36.45,78.76,84.03,126.38,127.51-3.5-133.26,77.35-388.29,321.96-459.83,23.76-6.95,46.41-11.65,67.99-14.52,30.7-86.28,65.81-152.01,92.6-195.41-70.05-29.44-167.87-39.1-302.13,3.77Z"/><path class="cls-8" d="m921.15,2421.86c-244.62,71.54-325.46,326.57-321.96,459.83,68.66,62.7,134.27,116.88,134.27,116.88l57.52,45.27s-46.27-218.21,133.72-338.03c10.35-116.87,35.41-216.87,64.44-298.46-21.57,2.87-44.23,7.57-67.99,14.52Z"/><ellipse class="cls-12" cx="1542.03" cy="3486.71" rx="121.48" ry="84.46" transform="translate(-1732.56 1534.26) rotate(-35.34)"/><ellipse class="cls-2" cx="1542.03" cy="3486.71" rx="97.97" ry="66.69" transform="translate(-1732.56 1534.26) rotate(-35.34)"/><path class="cls-13" d="m1198.26,2413.26l360.15,902.65c4.9,12.27-.98,26.21-13.18,31.27h0c-12.13,5.03-26.06-.56-31.36-12.57l-391.84-889.35c-12.04-27.32,7.97-58.01,37.83-58.01h0c16.92,0,32.13,10.31,38.4,26.02Z"/><path class="cls-6" d="m1318.07,3144.06c123.08-54.5,217.59-2.65,217.6-2.65l-86.89-226.63s-109.17-123.69-303.01-16c-193.85,107.69-148.86,307.12-148.86,307.13l190.98,150.31s7.12-157.66,130.19-212.17Z"/><path class="cls-6" d="m989.13,2407.34c-29.03,81.6-54.09,181.59-64.44,298.46,11.03-7.34,22.89-14.32,35.68-20.85,221.54-113.1,347.88-27.14,407.02,17.57h0l-72.12-188.11s-105.59-133.75-306.14-107.08Z"/></g></g></svg>